<svg width="75" height="78" viewBox="0 0 75 78" fill="none" xmlns="http://www.w3.org/2000/svg">
<path d="M45.5002 65C45.5002 72.1798 39.6796 77.9999 32.4998 77.9999C25.32 77.9999 19.5 72.1798 19.5 65C19.5 57.8202 25.32 51.9996 32.4998 51.9996C39.6796 51.9996 45.5002 57.8202 45.5002 65V65Z" fill="#FFBA08"/>
<path opacity="0.3" d="M45.5002 65.0004C45.5002 72.1802 39.6796 78.0002 32.4998 78.0002C25.32 78.0002 19.5 72.1802 19.5 65.0004C19.5 57.8206 25.32 52 32.4998 52C39.6796 52 45.5002 57.8206 45.5002 65.0004V65.0004Z" fill="#EF4444"/>
<path d="M55.2758 38.7437C44.2582 37.1703 35.7502 27.6964 35.7502 16.2504C35.7502 13 36.4453 9.9162 37.6771 7.11748C36.0132 6.72769 34.2845 6.50037 32.4998 6.50037C19.9552 6.50037 9.75 16.705 9.75 29.2502V38.3111C9.75 44.7428 6.93224 50.8139 1.9888 54.9933C0.724823 56.0722 0 57.6486 0 59.3125C0 62.4492 2.55116 65.0004 5.6873 65.0004H59.3123C62.449 65.0004 65.0002 62.4492 65.0002 59.3125C65.0002 57.6486 64.2754 56.0722 62.9787 54.9641C58.1816 50.905 55.3996 45.0124 55.2758 38.7437V38.7437Z" fill="url(#paint0_linear_158_596)"/>
<path d="M74.7504 16.2502C74.7504 25.2248 67.4748 32.4998 58.5002 32.4998C49.5256 32.4998 42.25 25.2248 42.25 16.2502C42.25 7.2756 49.5256 0 58.5002 0C67.4748 0 74.7504 7.2756 74.7504 16.2502V16.2502Z" fill="url(#paint1_linear_158_596)"/>
<defs>
<linearGradient id="paint0_linear_158_596" x1="-4.17578" y1="54.0004" x2="57.8242" y2="19.0004" gradientUnits="userSpaceOnUse">
<stop stop-color="#FFBA08"/>
<stop offset="1" stop-color="#FFDB7E"/>
</linearGradient>
<linearGradient id="paint1_linear_158_596" x1="40.8242" y1="37.5" x2="58.3242" y2="-1.5" gradientUnits="userSpaceOnUse">
<stop stop-color="#7A1CD0"/>
<stop offset="1" stop-color="#6366F1"/>
</linearGradient>
</defs>
</svg>
