<svg width="136" height="31" viewBox="0 0 136 31" fill="none" xmlns="http://www.w3.org/2000/svg">
<path d="M44.5046 3.84969C44.5046 4.80107 44.2128 5.56303 43.6381 6.1313C42.9773 6.80496 42.1166 7.14392 41.0619 7.14392C40.054 7.14392 39.1933 6.79926 38.4873 6.1199C37.7798 5.43058 37.4268 4.58459 37.4268 3.57196C37.4268 2.55934 37.7798 1.71335 38.4873 1.02972C39.1933 0.344664 40.054 0 41.0619 0C41.5637 0 42.0422 0.10112 42.4988 0.289118C42.9539 0.47854 43.3244 0.734901 43.5928 1.05108L42.9831 1.6521C42.5148 1.11232 41.8774 0.845992 41.0619 0.845992C40.3267 0.845992 39.6893 1.09666 39.1481 1.60226C38.6127 2.10928 38.3443 2.76585 38.3443 3.57196C38.3443 4.37808 38.6127 5.04034 39.1481 5.54736C39.6893 6.04727 40.3267 6.30363 41.0619 6.30363C41.8424 6.30363 42.4988 6.04727 43.0166 5.54167C43.358 5.20698 43.552 4.74553 43.6031 4.1559H41.0619V3.33269H44.452C44.4929 3.51072 44.5046 3.68305 44.5046 3.84969Z" fill="url(#paint0_linear_78_609)"/>
<path d="M49.8829 0.995528H46.6985V3.16035H49.5693V3.98356H46.6985V6.14838H49.8829V6.98725H45.797V0.156658H49.8829V0.995528Z" fill="url(#paint1_linear_78_609)"/>
<path d="M53.6785 6.98725H52.777V0.995528H50.8238V0.156658H55.6333V0.995528H53.6785V6.98725Z" fill="url(#paint2_linear_78_609)"/>
<path d="M59.1138 6.98725V0.156658H60.0139V6.98725H59.1138Z" fill="url(#paint3_linear_78_609)"/>
<path d="M64.0035 6.98725H63.1093V0.995528H61.1487V0.156658H65.964V0.995528H64.0035V6.98725Z" fill="url(#paint4_linear_78_609)"/>
<path d="M75.0695 6.10851C74.3795 6.79926 73.5247 7.14392 72.505 7.14392C71.4795 7.14392 70.6247 6.79926 69.9347 6.10851C69.2462 5.41919 68.9034 4.57319 68.9034 3.57196C68.9034 2.57073 69.2462 1.72474 69.9347 1.03541C70.6247 0.344663 71.4795 0 72.505 0C73.5189 0 74.3737 0.344663 75.0637 1.04111C75.758 1.73613 76.1008 2.57643 76.1008 3.57196C76.1008 4.57319 75.758 5.41919 75.0695 6.10851ZM70.6014 5.53597C71.1207 6.04727 71.7523 6.30363 72.505 6.30363C73.2519 6.30363 73.8894 6.04727 74.4029 5.53597C74.9207 5.02467 75.1833 4.36811 75.1833 3.57196C75.1833 2.77582 74.9207 2.11925 74.4029 1.60795C73.8894 1.09666 73.2519 0.840294 72.505 0.840294C71.7523 0.840294 71.1207 1.09666 70.6014 1.60795C70.0835 2.11925 69.821 2.77582 69.821 3.57196C69.821 4.36811 70.0835 5.02467 70.6014 5.53597Z" fill="url(#paint5_linear_78_609)"/>
<path d="M77.3655 6.98725V0.156658H78.4596L81.8614 5.46903H81.9008L81.8614 4.15589V0.156658H82.7614V6.98725H81.822L78.2597 1.41283H78.2204L78.2597 2.73166V6.98725H77.3655Z" fill="url(#paint6_linear_78_609)"/>
<path d="M68.6821 16.9632C65.9411 16.9632 63.702 18.9999 63.702 21.8099C63.702 24.5971 65.9411 26.6551 68.6821 26.6551C71.4289 26.6551 73.6681 24.5971 73.6681 21.8099C73.6681 18.9999 71.4289 16.9632 68.6821 16.9632ZM68.6821 24.7466C67.1781 24.7466 65.8842 23.5346 65.8842 21.8099C65.8842 20.0623 67.1781 18.8717 68.6821 18.8717C70.1861 18.8717 71.4858 20.0623 71.4858 21.8099C71.4858 23.5346 70.1861 24.7466 68.6821 24.7466ZM57.816 16.9632C55.0692 16.9632 52.8358 18.9999 52.8358 21.8099C52.8358 24.5971 55.0692 26.6551 57.816 26.6551C60.5613 26.6551 62.7961 24.5971 62.7961 21.8099C62.7961 18.9999 60.5613 16.9632 57.816 16.9632ZM57.816 24.7466C56.3105 24.7466 55.0123 23.5346 55.0123 21.8099C55.0123 20.0623 56.3105 18.8717 57.816 18.8717C59.3199 18.8717 60.6138 20.0623 60.6138 21.8099C60.6138 23.5346 59.3199 24.7466 57.816 24.7466ZM44.8857 18.4487V20.5081H49.9227C49.7754 21.6589 49.3815 22.5049 48.7776 23.0945C48.0424 23.8066 46.8973 24.5971 44.8857 24.5971C41.7859 24.5971 39.3585 22.1545 39.3585 19.128C39.3585 16.1016 41.7859 13.659 44.8857 13.659C46.5618 13.659 47.7813 14.2985 48.6813 15.1274L50.1678 13.6761C48.9089 12.5025 47.2343 11.601 44.8857 11.601C40.6349 11.601 37.0625 14.9779 37.0625 19.128C37.0625 23.2782 40.6349 26.6551 44.8857 26.6551C47.1832 26.6551 48.9089 25.9202 50.2655 24.5415C51.6557 23.1842 52.089 21.2758 52.089 19.7348C52.089 19.2562 52.0481 18.8161 51.9752 18.4487H44.8857ZM97.7591 20.0452C97.3492 18.9614 96.0845 16.9632 93.5084 16.9632C90.9556 16.9632 88.8302 18.9272 88.8302 21.8099C88.8302 24.5244 90.9337 26.6551 93.7534 26.6551C96.0334 26.6551 97.3492 25.2978 97.8904 24.5074L96.1983 23.4064C95.6337 24.2125 94.865 24.7466 93.7534 24.7466C92.6492 24.7466 91.8571 24.2524 91.3494 23.2782L97.9881 20.5964L97.7591 20.0452ZM90.9906 21.6589C90.9337 19.7903 92.477 18.8332 93.5828 18.8332C94.4492 18.8332 95.1844 19.2562 95.4295 19.8615L90.9906 21.6589ZM85.5947 26.3603H87.777V12.118H85.5947V26.3603ZM82.0208 18.0428H81.9479C81.4577 17.4759 80.5227 16.9632 79.3382 16.9632C76.8525 16.9632 74.5798 19.0939 74.5798 21.8255C74.5798 24.5415 76.8525 26.6551 79.3382 26.6551C80.5227 26.6551 81.4577 26.1381 81.9479 25.5542H82.0208V26.2492C82.0208 28.1021 81.007 29.0976 79.3717 29.0976C78.0384 29.0976 77.2113 28.1576 76.87 27.3672L74.9722 28.1406C75.5192 29.4252 76.9677 31.0061 79.3717 31.0061C81.9304 31.0061 84.0893 29.5363 84.0893 25.9601V17.258H82.0208V18.0428ZM79.5249 24.7466C78.0209 24.7466 76.762 23.5175 76.762 21.8255C76.762 20.1179 78.0209 18.8717 79.5249 18.8717C81.007 18.8717 82.1754 20.1179 82.1754 21.8255C82.1754 23.5175 81.007 24.7466 79.5249 24.7466ZM107.976 12.118H102.757V26.3603H104.933V20.9639H107.976C110.393 20.9639 112.764 19.2562 112.764 16.5402C112.764 13.8256 110.387 12.118 107.976 12.118ZM108.033 18.9828H104.933V14.0991H108.033C109.658 14.0991 110.586 15.4165 110.586 16.5402C110.586 17.6426 109.658 18.9828 108.033 18.9828ZM121.487 16.9362C119.914 16.9362 118.279 17.6141 117.607 19.1167L119.538 19.9071C119.954 19.1167 120.718 18.8603 121.526 18.8603C122.655 18.8603 123.801 19.5226 123.818 20.6919V20.8414C123.424 20.6192 122.581 20.2902 121.544 20.2902C119.464 20.2902 117.344 21.4082 117.344 23.4947C117.344 25.4032 119.048 26.6323 120.963 26.6323C122.428 26.6323 123.236 25.9871 123.744 25.2366H123.818V26.3375H125.92V20.8742C125.92 18.349 123.989 16.9362 121.487 16.9362ZM121.224 24.7409C120.513 24.7409 119.521 24.3963 119.521 23.5346C119.521 22.4323 120.758 22.0093 121.828 22.0093C122.787 22.0093 123.236 22.2158 123.818 22.4878C123.647 23.8066 122.485 24.7409 121.224 24.7409ZM133.578 17.2481L131.077 23.4221H131.002L128.416 17.2481H126.069L129.955 25.876L127.738 30.6771H130.012L136 17.2481H133.578ZM113.96 26.3603H116.142V12.118H113.96V26.3603Z" fill="white"/>
<path d="M0.541191 0.768212C0.198387 1.11857 0 1.66405 0 2.37047V27.5679C0 28.2743 0.198387 28.8198 0.541191 29.1702L0.625798 29.2471L15.0877 15.133V14.7997L0.625798 0.685609L0.541191 0.768212Z" fill="url(#paint7_linear_78_609)"/>
<path d="M19.9022 19.8398L15.0877 15.133V14.7997L19.908 10.0924L20.016 10.1537L25.7255 13.3254C27.3549 14.2255 27.3549 15.7067 25.7255 16.6125L20.016 19.7786L19.9022 19.8398Z" fill="url(#paint8_linear_78_609)"/>
<path d="M20.016 19.7786L15.0866 14.9662L0.540039 29.17C1.08123 29.7255 1.96377 29.7924 2.96738 29.237L20.016 19.7786Z" fill="url(#paint9_linear_78_609)"/>
<path d="M20.016 10.1537L2.96738 0.695551C1.96377 0.145799 1.08123 0.212736 0.540039 0.768184L15.0866 14.9662L20.016 10.1537Z" fill="url(#paint10_linear_78_609)"/>
<defs>
<linearGradient id="paint0_linear_78_609" x1="-3.12163" y1="37.5532" x2="8.45414" y2="25.697" gradientUnits="userSpaceOnUse">
<stop stop-color="#32A071"/>
<stop offset="0.0685" stop-color="#2DA771"/>
<stop offset="0.4762" stop-color="#15CF74"/>
<stop offset="0.8009" stop-color="#06E775"/>
<stop offset="1" stop-color="#00F076"/>
</linearGradient>
<linearGradient id="paint1_linear_78_609" x1="-3.12163" y1="37.5532" x2="8.45414" y2="25.697" gradientUnits="userSpaceOnUse">
<stop stop-color="#32A071"/>
<stop offset="0.0685" stop-color="#2DA771"/>
<stop offset="0.4762" stop-color="#15CF74"/>
<stop offset="0.8009" stop-color="#06E775"/>
<stop offset="1" stop-color="#00F076"/>
</linearGradient>
<linearGradient id="paint2_linear_78_609" x1="-3.12163" y1="37.5532" x2="8.45414" y2="25.697" gradientUnits="userSpaceOnUse">
<stop stop-color="#32A071"/>
<stop offset="0.0685" stop-color="#2DA771"/>
<stop offset="0.4762" stop-color="#15CF74"/>
<stop offset="0.8009" stop-color="#06E775"/>
<stop offset="1" stop-color="#00F076"/>
</linearGradient>
<linearGradient id="paint3_linear_78_609" x1="-3.12163" y1="37.5532" x2="8.45414" y2="25.697" gradientUnits="userSpaceOnUse">
<stop stop-color="#32A071"/>
<stop offset="0.0685" stop-color="#2DA771"/>
<stop offset="0.4762" stop-color="#15CF74"/>
<stop offset="0.8009" stop-color="#06E775"/>
<stop offset="1" stop-color="#00F076"/>
</linearGradient>
<linearGradient id="paint4_linear_78_609" x1="-3.12163" y1="37.5532" x2="8.45414" y2="25.697" gradientUnits="userSpaceOnUse">
<stop stop-color="#32A071"/>
<stop offset="0.0685" stop-color="#2DA771"/>
<stop offset="0.4762" stop-color="#15CF74"/>
<stop offset="0.8009" stop-color="#06E775"/>
<stop offset="1" stop-color="#00F076"/>
</linearGradient>
<linearGradient id="paint5_linear_78_609" x1="-3.12163" y1="37.5532" x2="8.45414" y2="25.697" gradientUnits="userSpaceOnUse">
<stop stop-color="#32A071"/>
<stop offset="0.0685" stop-color="#2DA771"/>
<stop offset="0.4762" stop-color="#15CF74"/>
<stop offset="0.8009" stop-color="#06E775"/>
<stop offset="1" stop-color="#00F076"/>
</linearGradient>
<linearGradient id="paint6_linear_78_609" x1="-3.12163" y1="37.5532" x2="8.45414" y2="25.697" gradientUnits="userSpaceOnUse">
<stop stop-color="#32A071"/>
<stop offset="0.0685" stop-color="#2DA771"/>
<stop offset="0.4762" stop-color="#15CF74"/>
<stop offset="0.8009" stop-color="#06E775"/>
<stop offset="1" stop-color="#00F076"/>
</linearGradient>
<linearGradient id="paint7_linear_78_609" x1="124.426" y1="1.53803" x2="119.611" y2="42.4883" gradientUnits="userSpaceOnUse">
<stop stop-color="#00A0FF"/>
<stop offset="0.0066" stop-color="#00A1FF"/>
<stop offset="0.2601" stop-color="#00BEFF"/>
<stop offset="0.5122" stop-color="#00D2FF"/>
<stop offset="0.7604" stop-color="#00DFFF"/>
<stop offset="1" stop-color="#00E3FF"/>
</linearGradient>
<linearGradient id="paint8_linear_78_609" x1="146.316" y1="15.5081" x2="-177.469" y2="15.5081" gradientUnits="userSpaceOnUse">
<stop stop-color="#FFE000"/>
<stop offset="0.4087" stop-color="#FFBD00"/>
<stop offset="0.7754" stop-color="#FFA500"/>
<stop offset="1" stop-color="#FF9C00"/>
</linearGradient>
<linearGradient id="paint9_linear_78_609" x1="117.283" y1="36.541" x2="87.4388" y2="137.434" gradientUnits="userSpaceOnUse">
<stop stop-color="#FF3A44"/>
<stop offset="1" stop-color="#C31162"/>
</linearGradient>
<linearGradient id="paint10_linear_78_609" x1="-3.12163" y1="37.5532" x2="8.45414" y2="25.697" gradientUnits="userSpaceOnUse">
<stop stop-color="#32A071"/>
<stop offset="0.0685" stop-color="#2DA771"/>
<stop offset="0.4762" stop-color="#15CF74"/>
<stop offset="0.8009" stop-color="#06E775"/>
<stop offset="1" stop-color="#00F076"/>
</linearGradient>
</defs>
</svg>
